# Blender v3.6.5 OBJ File: ''
# www.blender.org
mtllib prof515.mtl
o CORPO_H_mesh_.001
v 15.000000 165.000000 -0.000024
v 385.000000 165.000092 515.000000
v 385.000000 165.000000 -0.000024
v 15.000000 165.000000 -0.000024
v 15.000000 165.000092 515.000000
v 385.000000 165.000092 515.000000
v 15.000000 150.000092 515.000000
v 385.000000 150.000000 -0.000022
v 385.000000 150.000092 515.000000
v 15.000000 150.000092 515.000000
v 15.000000 150.000000 -0.000022
v 385.000000 150.000000 -0.000022
v 15.000000 150.000092 515.000000
v 385.000000 165.000092 515.000000
v 15.000000 165.000092 515.000000
v 15.000000 150.000092 515.000000
v 385.000000 150.000092 515.000000
v 385.000000 165.000092 515.000000
v 15.000000 165.000000 -0.000024
v 15.000000 165.000092 515.000000
v 15.000000 150.000000 -0.000022
v 15.000000 165.000092 515.000000
v 15.000000 150.000092 515.000000
v 15.000000 150.000000 -0.000022
v 385.000000 150.000000 -0.000022
v 15.000000 165.000000 -0.000024
v 385.000000 165.000000 -0.000024
v 385.000000 150.000000 -0.000022
v 15.000000 150.000000 -0.000022
v 15.000000 165.000000 -0.000024
v 385.000000 165.000092 515.000000
v 385.000000 165.000000 -0.000024
v 385.000000 150.000092 515.000000
v 385.000000 165.000000 -0.000024
v 385.000000 150.000000 -0.000022
v 385.000000 150.000092 515.000000
v 15.000000 826.000000 2.999876
v 385.000000 826.000000 17.999874
v 385.000000 826.000000 2.999876
v 15.000000 826.000000 2.999876
v 15.000000 826.000000 17.999874
v 385.000000 826.000000 17.999874
v 15.000000 771.000000 17.999882
v 385.000000 771.000000 2.999884
v 385.000000 771.000000 17.999882
v 15.000000 771.000000 17.999882
v 15.000000 771.000000 2.999884
v 385.000000 771.000000 2.999884
v 15.000000 771.000000 17.999882
v 385.000000 826.000000 17.999874
v 15.000000 826.000000 17.999874
v 15.000000 771.000000 17.999882
v 385.000000 771.000000 17.999882
v 385.000000 826.000000 17.999874
v 15.000000 826.000000 2.999876
v 15.000000 826.000000 17.999874
v 15.000000 771.000000 2.999884
v 15.000000 826.000000 17.999874
v 15.000000 771.000000 17.999882
v 15.000000 771.000000 2.999884
v 385.000000 826.000000 2.999876
v 15.000000 826.000000 2.999876
v 385.000000 771.000000 2.999884
v 15.000000 826.000000 2.999876
v 15.000000 771.000000 2.999884
v 385.000000 771.000000 2.999884
v 385.000000 826.000000 17.999874
v 385.000000 826.000000 2.999876
v 385.000000 771.000000 17.999882
v 385.000000 826.000000 2.999876
v 385.000000 771.000000 2.999884
v 385.000000 771.000000 17.999882
v 15.000000 826.000122 514.999878
v 385.000000 811.000122 514.999878
v 385.000000 826.000122 514.999878
v 15.000000 826.000122 514.999878
v 15.000000 811.000122 514.999878
v 385.000000 811.000122 514.999878
v 15.000000 811.000122 459.999878
v 385.000000 826.000122 459.999878
v 385.000000 811.000122 459.999878
v 15.000000 811.000122 459.999878
v 15.000000 826.000122 459.999878
v 385.000000 826.000122 459.999878
v 15.000000 811.000122 459.999878
v 385.000000 811.000122 514.999878
v 15.000000 811.000122 514.999878
v 15.000000 811.000122 459.999878
v 385.000000 811.000122 459.999878
v 385.000000 811.000122 514.999878
v 15.000000 826.000122 514.999878
v 15.000000 811.000122 514.999878
v 15.000000 826.000122 459.999878
v 15.000000 811.000122 514.999878
v 15.000000 811.000122 459.999878
v 15.000000 826.000122 459.999878
v 385.000000 826.000122 459.999878
v 15.000000 826.000122 514.999878
v 385.000000 826.000122 514.999878
v 385.000000 826.000122 459.999878
v 15.000000 826.000122 459.999878
v 15.000000 826.000122 514.999878
v 385.000000 811.000122 514.999878
v 385.000000 826.000122 514.999878
v 385.000000 811.000122 459.999878
v 385.000000 826.000122 514.999878
v 385.000000 826.000122 459.999878
v 385.000000 811.000122 459.999878
vn 0.0000 1.0000 -0.0000
vn 0.0000 -1.0000 0.0000
vn 0.0000 0.0000 1.0000
vn 1.0000 0.0000 0.0000
vn 0.0000 -0.0000 -1.0000
vn -1.0000 0.0000 0.0000
usemtl None
s 1
f 1/1/1 2/2/1 3/3/1
f 4/4/1 5/5/1 6/6/1
f 7/7/2 8/8/2 9/9/2
f 10/10/2 11/11/2 12/12/2
f 13/13/3 14/14/3 15/15/3
f 16/16/3 17/17/3 18/18/3
f 19/19/4 20/20/4 21/21/4
f 22/22/4 23/23/4 24/24/4
f 25/25/5 26/26/5 27/27/5
f 28/28/5 29/29/5 30/30/5
f 31/31/6 32/32/6 33/33/6
f 34/34/6 35/35/6 36/36/6
f 37/37/1 38/38/1 39/39/1
f 40/40/1 41/41/1 42/42/1
f 43/43/2 44/44/2 45/45/2
f 46/46/2 47/47/2 48/48/2
f 49/49/3 50/50/3 51/51/3
f 52/52/3 53/53/3 54/54/3
f 55/55/4 56/56/4 57/57/4
f 58/58/4 59/59/4 60/60/4
f 61/61/3 62/62/3 63/63/3
f 64/64/3 65/65/3 66/66/3
f 67/67/6 68/68/6 69/69/6
f 70/70/6 71/71/6 72/72/6
f 73/73/3 74/74/3 75/75/3
f 76/76/3 77/77/3 78/78/3
f 79/79/5 80/80/5 81/81/5
f 82/82/5 83/83/5 84/84/5
f 85/85/2 86/86/2 87/87/2
f 88/88/2 89/89/2 90/90/2
f 91/91/4 92/92/4 93/93/4
f 94/94/4 95/95/4 96/96/4
f 97/97/1 98/98/1 99/99/1
f 100/100/1 101/101/1 102/102/1
f 103/103/6 104/104/6 105/105/6
f 106/106/6 107/107/6 108/108/6
o CORPO_V_mesh_.001
v 0.000000 826.000000 -0.000124
v 15.000000 826.000122 514.999878
v 15.000000 826.000000 -0.000124
v 0.000000 826.000000 -0.000124
v 0.000000 826.000122 514.999878
v 15.000000 826.000122 514.999878
v 0.000000 150.000092 515.000000
v 15.000000 150.000000 -0.000022
v 15.000000 150.000092 515.000000
v 0.000000 150.000092 515.000000
v 0.000000 150.000000 -0.000022
v 15.000000 150.000000 -0.000022
v 0.000000 150.000092 515.000000
v 15.000000 826.000122 514.999878
v 0.000000 826.000122 514.999878
v 0.000000 150.000092 515.000000
v 15.000000 150.000092 515.000000
v 15.000000 826.000122 514.999878
v 0.000000 150.000000 -0.000022
v 0.000000 826.000122 514.999878
v 0.000000 826.000000 -0.000124
v 0.000000 150.000000 -0.000022
v 0.000000 150.000092 515.000000
v 0.000000 826.000122 514.999878
v 15.000000 150.000000 -0.000022
v 0.000000 826.000000 -0.000124
v 15.000000 826.000000 -0.000124
v 15.000000 150.000000 -0.000022
v 0.000000 150.000000 -0.000022
v 0.000000 826.000000 -0.000124
v 15.000000 150.000092 515.000000
v 15.000000 826.000000 -0.000124
v 15.000000 826.000122 514.999878
v 15.000000 150.000092 515.000000
v 15.000000 150.000000 -0.000022
v 15.000000 826.000000 -0.000124
v 400.000000 826.000122 514.999878
v 385.000000 826.000000 -0.000124
v 385.000000 826.000122 514.999878
v 400.000000 826.000122 514.999878
v 400.000000 826.000000 -0.000124
v 385.000000 826.000000 -0.000124
v 400.000000 150.000000 -0.000022
v 385.000000 150.000092 515.000000
v 385.000000 150.000000 -0.000022
v 400.000000 150.000000 -0.000022
v 400.000000 150.000092 515.000000
v 385.000000 150.000092 515.000000
v 400.000000 826.000122 514.999878
v 385.000000 150.000092 515.000000
v 400.000000 150.000092 515.000000
v 400.000000 826.000122 514.999878
v 385.000000 826.000122 514.999878
v 385.000000 150.000092 515.000000
v 400.000000 826.000000 -0.000124
v 400.000000 150.000092 515.000000
v 400.000000 150.000000 -0.000022
v 400.000000 826.000000 -0.000124
v 400.000000 826.000122 514.999878
v 400.000000 150.000092 515.000000
v 385.000000 826.000000 -0.000124
v 400.000000 150.000000 -0.000022
v 385.000000 150.000000 -0.000022
v 385.000000 826.000000 -0.000124
v 400.000000 826.000000 -0.000124
v 400.000000 150.000000 -0.000022
v 385.000000 826.000122 514.999878
v 385.000000 150.000000 -0.000022
v 385.000000 150.000092 515.000000
v 385.000000 826.000122 514.999878
v 385.000000 826.000000 -0.000124
v 385.000000 150.000000 -0.000022
v 15.000000 165.000000 2.999976
v 15.000000 165.000000 -0.000024
v 15.000000 826.000000 2.999876
v 15.000000 165.000000 -0.000024
v 15.000000 826.000000 -0.000124
v 15.000000 826.000000 2.999876
v 385.000000 826.000000 2.999876
v 15.000000 826.000000 -0.000124
v 15.000000 826.000000 2.999876
v 385.000000 826.000000 2.999876
v 385.000000 826.000000 -0.000124
v 15.000000 826.000000 -0.000124
v 385.000000 826.000000 2.999876
v 385.000000 826.000000 -0.000124
v 385.000000 165.000000 2.999976
v 385.000000 826.000000 -0.000124
v 385.000000 165.000000 -0.000024
v 385.000000 165.000000 2.999976
v 385.000000 165.000000 2.999976
v 385.000000 165.000000 -0.000024
v 15.000000 165.000000 2.999976
v 385.000000 165.000000 -0.000024
v 15.000000 165.000000 -0.000024
v 15.000000 165.000000 2.999976
v 15.000000 165.000000 2.999976
v 385.000000 826.000000 2.999876
v 15.000000 826.000000 2.999876
v 15.000000 165.000000 2.999976
v 385.000000 165.000000 2.999976
v 385.000000 826.000000 2.999876
v 15.000000 826.000000 -0.000124
v 385.000000 165.000000 -0.000024
v 15.000000 165.000000 -0.000024
v 15.000000 826.000000 -0.000124
v 385.000000 826.000000 -0.000124
v 385.000000 165.000000 -0.000024
vn 0.0000 1.0000 -0.0000
vn 0.0000 -1.0000 0.0000
vn 0.0000 0.0000 1.0000
vn -1.0000 0.0000 0.0000
vn 0.0000 -0.0000 -1.0000
vn 1.0000 0.0000 0.0000
usemtl None
s 1
f 109/109/7 110/110/7 111/111/7
f 112/112/7 113/113/7 114/114/7
f 115/115/8 116/116/8 117/117/8
f 118/118/8 119/119/8 120/120/8
f 121/121/9 122/122/9 123/123/9
f 124/124/9 125/125/9 126/126/9
f 127/127/10 128/128/10 129/129/10
f 130/130/10 131/131/10 132/132/10
f 133/133/11 134/134/11 135/135/11
f 136/136/11 137/137/11 138/138/11
f 139/139/12 140/140/12 141/141/12
f 142/142/12 143/143/12 144/144/12
f 145/145/7 146/146/7 147/147/7
f 148/148/7 149/149/7 150/150/7
f 151/151/8 152/152/8 153/153/8
f 154/154/8 155/155/8 156/156/8
f 157/157/9 158/158/9 159/159/9
f 160/160/9 161/161/9 162/162/9
f 163/163/12 164/164/12 165/165/12
f 166/166/12 167/167/12 168/168/12
f 169/169/11 170/170/11 171/171/11
f 172/172/11 173/173/11 174/174/11
f 175/175/10 176/176/10 177/177/10
f 178/178/10 179/179/10 180/180/10
f 181/181/12 182/182/12 183/183/12
f 184/184/12 185/185/12 186/186/12
f 187/187/7 188/188/7 189/189/7
f 190/190/7 191/191/7 192/192/7
f 193/193/10 194/194/10 195/195/10
f 196/196/10 197/197/10 198/198/10
f 199/199/7 200/200/7 201/201/7
f 202/202/7 203/203/7 204/204/7
f 205/205/9 206/206/9 207/207/9
f 208/208/9 209/209/9 210/210/9
f 211/211/11 212/212/11 213/213/11
f 214/214/11 215/215/11 216/216/11
o GUIA_mesh_.001
v 50.000000 0.000000 0.000000
v 0.000000 0.000008 50.000000
v 0.000000 0.000000 0.000000
v 50.000000 0.000008 50.000000
v 0.000000 0.000008 50.000000
v 50.000000 0.000000 0.000000
vn 0.0000 -1.0000 0.0000
usemtl None
s 1
f 217/217/13 218/218/13 219/219/13
f 220/220/13 221/221/13 222/222/13
