# Blender 4.2.0
# www.blender.org
mtllib nicho 039.mtl
o CORPO_H_mesh_
v 1436.000000 191.000000 10.000000
v 1436.000000 196.000000 10.000000
v 1436.000000 191.000000 0.000000
v 1436.000000 205.000000 270.000000
v 1436.000000 205.000000 0.000000
v 1436.000000 196.000000 13.000000
v 1436.000000 205.000000 270.000000
v 1436.000000 196.000000 13.000000
v 1436.000000 191.000000 270.000000
v 1436.000000 191.000000 270.000000
v 1436.000000 196.000000 13.000000
v 1436.000000 191.000000 13.000000
v 1436.000000 196.000000 10.000000
v 1436.000000 205.000000 0.000000
v 1436.000000 196.000000 13.000000
v 1436.000000 205.000000 0.000000
v 1436.000000 191.000000 0.000000
v 1436.000000 196.000000 10.000000
v 1436.000000 196.000000 13.000000
v 1436.000000 196.000000 10.000000
v 14.000000 196.000000 13.000000
v 14.000000 196.000000 13.000000
v 1436.000000 196.000000 10.000000
v 14.000000 196.000000 10.000000
v 1436.000000 196.000000 13.000000
v 14.000000 196.000000 13.000000
v 1436.000000 191.000000 13.000000
v 1436.000000 191.000000 13.000000
v 14.000000 196.000000 13.000000
v 14.000000 191.000000 13.000000
v 14.000000 191.000000 270.000000
v 1436.000000 191.000000 13.000000
v 1436.000000 191.000000 270.000000
v 14.000000 191.000000 13.000000
v 1436.000000 191.000000 13.000000
v 14.000000 191.000000 270.000000
v 1436.000000 205.000000 270.000000
v 14.000000 191.000000 270.000000
v 1436.000000 191.000000 270.000000
v 14.000000 205.000000 270.000000
v 14.000000 191.000000 270.000000
v 1436.000000 205.000000 270.000000
v 1436.000000 191.000000 0.000000
v 14.000000 205.000000 0.000000
v 1436.000000 205.000000 0.000000
v 14.000000 191.000000 0.000000
v 14.000000 205.000000 0.000000
v 1436.000000 191.000000 0.000000
v 14.000000 191.000000 10.000000
v 1436.000000 191.000000 0.000000
v 1436.000000 191.000000 10.000000
v 14.000000 191.000000 0.000000
v 1436.000000 191.000000 0.000000
v 14.000000 191.000000 10.000000
v 1436.000000 191.000000 10.000000
v 14.000000 191.000000 10.000000
v 1436.000000 196.000000 10.000000
v 1436.000000 196.000000 10.000000
v 14.000000 191.000000 10.000000
v 14.000000 196.000000 10.000000
v 14.000000 205.000000 0.000000
v 1436.000000 205.000000 270.000000
v 1436.000000 205.000000 0.000000
v 14.000000 205.000000 270.000000
v 1436.000000 205.000000 270.000000
v 14.000000 205.000000 0.000000
v 14.000000 191.000000 270.000000
v 14.000000 196.000000 13.000000
v 14.000000 205.000000 270.000000
v 14.000000 191.000000 270.000000
v 14.000000 191.000000 13.000000
v 14.000000 196.000000 13.000000
v 14.000000 191.000000 0.000000
v 14.000000 205.000000 0.000000
v 14.000000 196.000000 10.000000
v 14.000000 191.000000 0.000000
v 14.000000 196.000000 10.000000
v 14.000000 191.000000 10.000000
v 14.000000 196.000000 13.000000
v 14.000000 205.000000 0.000000
v 14.000000 196.000000 10.000000
v 14.000000 196.000000 13.000000
v 14.000000 205.000000 0.000000
v 14.000000 205.000000 270.000000
v 9.000000 194.000000 10.000000
v 9.000000 194.000000 13.000000
v 9.000000 11.000000 10.000000
v 9.000000 11.000000 10.000000
v 9.000000 194.000000 13.000000
v 9.000000 11.000000 13.000000
v 9.000000 11.000000 13.000000
v 1441.000000 194.000000 13.000000
v 9.000000 194.000000 13.000000
v 1441.000000 11.000000 13.000000
v 1441.000000 194.000000 13.000000
v 9.000000 11.000000 13.000000
v 9.000000 11.000000 10.000000
v 9.000000 11.000000 13.000000
v 1441.000000 11.000000 10.000000
v 1441.000000 11.000000 10.000000
v 9.000000 11.000000 13.000000
v 1441.000000 11.000000 13.000000
v 9.000000 194.000000 13.000000
v 9.000000 194.000000 10.000000
v 1441.000000 194.000000 13.000000
v 1441.000000 194.000000 13.000000
v 9.000000 194.000000 10.000000
v 1441.000000 194.000000 10.000000
v 9.000000 194.000000 10.000000
v 1441.000000 11.000000 10.000000
v 9.000000 11.000000 10.000000
v 1441.000000 194.000000 10.000000
v 1441.000000 11.000000 10.000000
v 9.000000 194.000000 10.000000
v 1441.000000 194.000000 13.000000
v 1441.000000 194.000000 10.000000
v 1441.000000 11.000000 13.000000
v 1441.000000 11.000000 13.000000
v 1441.000000 194.000000 10.000000
v 1441.000000 11.000000 10.000000
v 14.000000 0.000000 270.000000
v 14.000000 0.000000 0.000000
v 14.000000 9.000000 13.000000
v 14.000000 0.000000 270.000000
v 14.000000 9.000000 13.000000
v 14.000000 14.000000 270.000000
v 14.000000 14.000000 270.000000
v 14.000000 9.000000 13.000000
v 14.000000 14.000000 13.000000
v 14.000000 9.000000 10.000000
v 14.000000 0.000000 0.000000
v 14.000000 9.000000 13.000000
v 14.000000 14.000000 10.000000
v 14.000000 9.000000 10.000000
v 14.000000 14.000000 0.000000
v 14.000000 14.000000 0.000000
v 14.000000 9.000000 10.000000
v 14.000000 0.000000 0.000000
v 14.000000 9.000000 13.000000
v 1436.000000 9.000000 13.000000
v 14.000000 14.000000 13.000000
v 14.000000 14.000000 13.000000
v 1436.000000 9.000000 13.000000
v 1436.000000 14.000000 13.000000
v 1436.000000 14.000000 270.000000
v 14.000000 14.000000 13.000000
v 14.000000 14.000000 270.000000
v 1436.000000 14.000000 13.000000
v 14.000000 14.000000 13.000000
v 1436.000000 14.000000 270.000000
v 14.000000 0.000000 270.000000
v 1436.000000 14.000000 270.000000
v 14.000000 14.000000 270.000000
v 1436.000000 0.000000 270.000000
v 1436.000000 14.000000 270.000000
v 14.000000 0.000000 270.000000
v 1436.000000 0.000000 0.000000
v 14.000000 0.000000 270.000000
v 14.000000 0.000000 0.000000
v 1436.000000 0.000000 270.000000
v 14.000000 0.000000 270.000000
v 1436.000000 0.000000 0.000000
v 14.000000 9.000000 13.000000
v 14.000000 9.000000 10.000000
v 1436.000000 9.000000 13.000000
v 1436.000000 9.000000 13.000000
v 14.000000 9.000000 10.000000
v 1436.000000 9.000000 10.000000
v 14.000000 14.000000 10.000000
v 1436.000000 14.000000 10.000000
v 14.000000 9.000000 10.000000
v 14.000000 9.000000 10.000000
v 1436.000000 14.000000 10.000000
v 1436.000000 9.000000 10.000000
v 1436.000000 14.000000 10.000000
v 14.000000 14.000000 0.000000
v 14.000000 14.000000 10.000000
v 1436.000000 14.000000 0.000000
v 14.000000 14.000000 0.000000
v 1436.000000 14.000000 10.000000
v 14.000000 14.000000 0.000000
v 1436.000000 0.000000 0.000000
v 14.000000 0.000000 0.000000
v 1436.000000 14.000000 0.000000
v 1436.000000 0.000000 0.000000
v 14.000000 14.000000 0.000000
v 1436.000000 14.000000 13.000000
v 1436.000000 9.000000 13.000000
v 1436.000000 14.000000 270.000000
v 1436.000000 14.000000 270.000000
v 1436.000000 9.000000 13.000000
v 1436.000000 0.000000 270.000000
v 1436.000000 14.000000 0.000000
v 1436.000000 0.000000 0.000000
v 1436.000000 9.000000 10.000000
v 1436.000000 14.000000 0.000000
v 1436.000000 9.000000 10.000000
v 1436.000000 14.000000 10.000000
v 1436.000000 9.000000 13.000000
v 1436.000000 0.000000 0.000000
v 1436.000000 9.000000 10.000000
v 1436.000000 9.000000 13.000000
v 1436.000000 0.000000 0.000000
v 1436.000000 0.000000 270.000000
vn -1.0000 -0.0000 -0.0000
vn 1.0000 -0.0000 -0.0000
vn -0.0000 1.0000 -0.0000
vn -0.0000 -0.0000 1.0000
vn -0.0000 -1.0000 -0.0000
vn -0.0000 -0.0000 -1.0000
s 0
f 1//1 2//1 3//1
f 4//1 5//1 6//1
f 7//1 8//1 9//1
f 10//1 11//1 12//1
f 13//2 14//2 15//2
f 16//1 17//1 18//1
f 19//3 20//3 21//3
f 22//3 23//3 24//3
f 25//4 26//4 27//4
f 28//4 29//4 30//4
f 31//5 32//5 33//5
f 34//5 35//5 36//5
f 37//4 38//4 39//4
f 40//4 41//4 42//4
f 43//6 44//6 45//6
f 46//6 47//6 48//6
f 49//5 50//5 51//5
f 52//5 53//5 54//5
f 55//6 56//6 57//6
f 58//6 59//6 60//6
f 61//3 62//3 63//3
f 64//3 65//3 66//3
f 67//2 68//2 69//2
f 70//2 71//2 72//2
f 73//2 74//2 75//2
f 76//2 77//2 78//2
f 79//1 80//1 81//1
f 82//2 83//2 84//2
f 85//2 86//2 87//2
f 88//2 89//2 90//2
f 91//4 92//4 93//4
f 94//4 95//4 96//4
f 97//3 98//3 99//3
f 100//3 101//3 102//3
f 103//5 104//5 105//5
f 106//5 107//5 108//5
f 109//6 110//6 111//6
f 112//6 113//6 114//6
f 115//1 116//1 117//1
f 118//1 119//1 120//1
f 121//2 122//2 123//2
f 124//2 125//2 126//2
f 127//2 128//2 129//2
f 130//1 131//1 132//1
f 133//2 134//2 135//2
f 136//2 137//2 138//2
f 139//4 140//4 141//4
f 142//4 143//4 144//4
f 145//3 146//3 147//3
f 148//3 149//3 150//3
f 151//4 152//4 153//4
f 154//4 155//4 156//4
f 157//5 158//5 159//5
f 160//5 161//5 162//5
f 163//5 164//5 165//5
f 166//5 167//5 168//5
f 169//6 170//6 171//6
f 172//6 173//6 174//6
f 175//3 176//3 177//3
f 178//3 179//3 180//3
f 181//6 182//6 183//6
f 184//6 185//6 186//6
f 187//1 188//1 189//1
f 190//1 191//1 192//1
f 193//1 194//1 195//1
f 196//1 197//1 198//1
f 199//2 200//2 201//2
f 202//1 203//1 204//1
o CORPO_V_mesh_
v 14.000000 0.000000 0.000000
v 0.000000 205.000000 0.000000
v 14.000000 205.000000 0.000000
v 0.000000 0.000000 0.000000
v 0.000000 205.000000 0.000000
v 14.000000 0.000000 0.000000
v 14.000000 0.000000 10.000000
v 14.000000 205.000000 0.000000
v 14.000000 205.000000 10.000000
v 14.000000 0.000000 0.000000
v 14.000000 205.000000 0.000000
v 14.000000 0.000000 10.000000
v 9.000000 0.000000 10.000000
v 14.000000 205.000000 10.000000
v 9.000000 205.000000 10.000000
v 14.000000 0.000000 10.000000
v 14.000000 205.000000 10.000000
v 9.000000 0.000000 10.000000
v 9.000000 0.000000 13.000000
v 9.000000 205.000000 10.000000
v 9.000000 205.000000 13.000000
v 9.000000 0.000000 10.000000
v 9.000000 205.000000 10.000000
v 9.000000 0.000000 13.000000
v 14.000000 0.000000 13.000000
v 9.000000 205.000000 13.000000
v 14.000000 205.000000 13.000000
v 9.000000 0.000000 13.000000
v 9.000000 205.000000 13.000000
v 14.000000 0.000000 13.000000
v 14.000000 0.000000 270.000000
v 14.000000 205.000000 13.000000
v 14.000000 205.000000 270.000000
v 14.000000 0.000000 13.000000
v 14.000000 205.000000 13.000000
v 14.000000 0.000000 270.000000
v 0.000000 0.000000 270.000000
v 14.000000 205.000000 270.000000
v 0.000000 205.000000 270.000000
v 14.000000 0.000000 270.000000
v 14.000000 205.000000 270.000000
v 0.000000 0.000000 270.000000
v 0.000000 0.000000 0.000000
v 0.000000 205.000000 270.000000
v 0.000000 205.000000 0.000000
v 0.000000 0.000000 270.000000
v 0.000000 205.000000 270.000000
v 0.000000 0.000000 0.000000
v 14.000000 205.000000 0.000000
v 9.000000 205.000000 10.000000
v 14.000000 205.000000 10.000000
v 9.000000 205.000000 13.000000
v 0.000000 205.000000 0.000000
v 0.000000 205.000000 270.000000
v 14.000000 205.000000 270.000000
v 9.000000 205.000000 13.000000
v 0.000000 205.000000 270.000000
v 14.000000 205.000000 13.000000
v 9.000000 205.000000 13.000000
v 14.000000 205.000000 270.000000
v 9.000000 205.000000 10.000000
v 0.000000 205.000000 0.000000
v 9.000000 205.000000 13.000000
v 9.000000 205.000000 10.000000
v 14.000000 205.000000 0.000000
v 0.000000 205.000000 0.000000
v 0.000000 0.000000 270.000000
v 9.000000 0.000000 13.000000
v 14.000000 0.000000 270.000000
v 9.000000 0.000000 13.000000
v 14.000000 0.000000 13.000000
v 14.000000 0.000000 270.000000
v 9.000000 0.000000 10.000000
v 0.000000 0.000000 0.000000
v 14.000000 0.000000 0.000000
v 14.000000 0.000000 10.000000
v 9.000000 0.000000 10.000000
v 14.000000 0.000000 0.000000
v 9.000000 0.000000 13.000000
v 0.000000 0.000000 0.000000
v 9.000000 0.000000 10.000000
v 0.000000 0.000000 270.000000
v 0.000000 0.000000 0.000000
v 9.000000 0.000000 13.000000
v 1436.000000 0.000000 270.000000
v 1450.000000 205.000000 270.000000
v 1436.000000 205.000000 270.000000
v 1450.000000 0.000000 270.000000
v 1450.000000 205.000000 270.000000
v 1436.000000 0.000000 270.000000
v 1436.000000 0.000000 13.000000
v 1436.000000 205.000000 270.000000
v 1436.000000 205.000000 13.000000
v 1436.000000 0.000000 270.000000
v 1436.000000 205.000000 270.000000
v 1436.000000 0.000000 13.000000
v 1441.000000 0.000000 13.000000
v 1436.000000 205.000000 13.000000
v 1441.000000 205.000000 13.000000
v 1436.000000 0.000000 13.000000
v 1436.000000 205.000000 13.000000
v 1441.000000 0.000000 13.000000
v 1441.000000 0.000000 10.000000
v 1441.000000 205.000000 13.000000
v 1441.000000 205.000000 10.000000
v 1441.000000 0.000000 13.000000
v 1441.000000 205.000000 13.000000
v 1441.000000 0.000000 10.000000
v 1436.000000 0.000000 10.000000
v 1441.000000 205.000000 10.000000
v 1436.000000 205.000000 10.000000
v 1441.000000 0.000000 10.000000
v 1441.000000 205.000000 10.000000
v 1436.000000 0.000000 10.000000
v 1436.000000 0.000000 0.000000
v 1436.000000 205.000000 10.000000
v 1436.000000 205.000000 0.000000
v 1436.000000 0.000000 10.000000
v 1436.000000 205.000000 10.000000
v 1436.000000 0.000000 0.000000
v 1450.000000 0.000000 0.000000
v 1436.000000 205.000000 0.000000
v 1450.000000 205.000000 0.000000
v 1436.000000 0.000000 0.000000
v 1436.000000 205.000000 0.000000
v 1450.000000 0.000000 0.000000
v 1450.000000 0.000000 270.000000
v 1450.000000 205.000000 0.000000
v 1450.000000 205.000000 270.000000
v 1450.000000 0.000000 0.000000
v 1450.000000 205.000000 0.000000
v 1450.000000 0.000000 270.000000
v 1441.000000 0.000000 13.000000
v 1450.000000 0.000000 0.000000
v 1450.000000 0.000000 270.000000
v 1436.000000 0.000000 270.000000
v 1441.000000 0.000000 13.000000
v 1450.000000 0.000000 270.000000
v 1436.000000 0.000000 13.000000
v 1441.000000 0.000000 13.000000
v 1436.000000 0.000000 270.000000
v 1441.000000 0.000000 10.000000
v 1450.000000 0.000000 0.000000
v 1441.000000 0.000000 13.000000
v 1436.000000 0.000000 0.000000
v 1441.000000 0.000000 10.000000
v 1436.000000 0.000000 10.000000
v 1450.000000 0.000000 0.000000
v 1441.000000 0.000000 10.000000
v 1436.000000 0.000000 0.000000
v 1436.000000 205.000000 270.000000
v 1441.000000 205.000000 13.000000
v 1436.000000 205.000000 13.000000
v 1450.000000 205.000000 270.000000
v 1441.000000 205.000000 13.000000
v 1436.000000 205.000000 270.000000
v 1441.000000 205.000000 10.000000
v 1450.000000 205.000000 0.000000
v 1436.000000 205.000000 0.000000
v 1436.000000 205.000000 10.000000
v 1441.000000 205.000000 10.000000
v 1436.000000 205.000000 0.000000
v 1441.000000 205.000000 13.000000
v 1450.000000 205.000000 0.000000
v 1441.000000 205.000000 10.000000
v 1450.000000 205.000000 270.000000
v 1450.000000 205.000000 0.000000
v 1441.000000 205.000000 13.000000
v 493.000000 191.000000 14.000000
v 493.000000 191.000000 270.000000
v 479.000000 191.000000 14.000000
v 479.000000 191.000000 14.000000
v 493.000000 191.000000 270.000000
v 479.000000 191.000000 270.000000
v 493.000000 191.000000 14.000000
v 479.000000 191.000000 14.000000
v 493.000000 14.000000 14.000000
v 493.000000 14.000000 14.000000
v 479.000000 191.000000 14.000000
v 479.000000 14.000000 14.000000
v 493.000000 14.000000 270.000000
v 493.000000 191.000000 14.000000
v 493.000000 191.000000 270.000000
v 493.000000 14.000000 14.000000
v 493.000000 191.000000 14.000000
v 493.000000 14.000000 270.000000
v 493.000000 14.000000 270.000000
v 493.000000 14.000000 14.000000
v 479.000000 14.000000 270.000000
v 479.000000 14.000000 270.000000
v 493.000000 14.000000 14.000000
v 479.000000 14.000000 14.000000
v 479.000000 14.000000 270.000000
v 493.000000 191.000000 270.000000
v 479.000000 191.000000 270.000000
v 493.000000 14.000000 270.000000
v 493.000000 191.000000 270.000000
v 479.000000 14.000000 270.000000
v 479.000000 14.000000 14.000000
v 479.000000 191.000000 270.000000
v 479.000000 191.000000 14.000000
v 479.000000 14.000000 270.000000
v 479.000000 191.000000 270.000000
v 479.000000 14.000000 14.000000
v 971.000000 14.000000 270.000000
v 971.000000 14.000000 14.000000
v 957.000000 14.000000 270.000000
v 957.000000 14.000000 270.000000
v 971.000000 14.000000 14.000000
v 957.000000 14.000000 14.000000
v 957.000000 14.000000 14.000000
v 971.000000 14.000000 14.000000
v 957.000000 191.000000 14.000000
v 957.000000 191.000000 14.000000
v 971.000000 14.000000 14.000000
v 971.000000 191.000000 14.000000
v 957.000000 191.000000 270.000000
v 957.000000 14.000000 14.000000
v 957.000000 14.000000 270.000000
v 957.000000 191.000000 14.000000
v 957.000000 14.000000 14.000000
v 957.000000 191.000000 270.000000
v 971.000000 191.000000 14.000000
v 971.000000 191.000000 270.000000
v 957.000000 191.000000 14.000000
v 957.000000 191.000000 14.000000
v 971.000000 191.000000 270.000000
v 957.000000 191.000000 270.000000
v 971.000000 191.000000 270.000000
v 957.000000 14.000000 270.000000
v 971.000000 14.000000 270.000000
v 957.000000 191.000000 270.000000
v 957.000000 14.000000 270.000000
v 971.000000 191.000000 270.000000
v 971.000000 191.000000 14.000000
v 971.000000 14.000000 270.000000
v 971.000000 14.000000 14.000000
v 971.000000 191.000000 270.000000
v 971.000000 14.000000 270.000000
v 971.000000 191.000000 14.000000
vn -0.0000 -0.0000 -1.0000
vn 1.0000 -0.0000 -0.0000
vn -0.0000 -0.0000 1.0000
vn -1.0000 -0.0000 -0.0000
vn -0.0000 1.0000 -0.0000
vn -0.0000 -1.0000 -0.0000
s 0
f 205//7 206//7 207//7
f 208//7 209//7 210//7
f 211//8 212//8 213//8
f 214//8 215//8 216//8
f 217//9 218//9 219//9
f 220//9 221//9 222//9
f 223//8 224//8 225//8
f 226//8 227//8 228//8
f 229//7 230//7 231//7
f 232//7 233//7 234//7
f 235//8 236//8 237//8
f 238//8 239//8 240//8
f 241//9 242//9 243//9
f 244//9 245//9 246//9
f 247//10 248//10 249//10
f 250//10 251//10 252//10
f 253//11 254//11 255//11
f 256//11 257//11 258//11
f 259//11 260//11 261//11
f 262//11 263//11 264//11
f 265//11 266//11 267//11
f 268//11 269//11 270//11
f 271//12 272//12 273//12
f 274//12 275//12 276//12
f 277//12 278//12 279//12
f 280//12 281//12 282//12
f 283//12 284//12 285//12
f 286//12 287//12 288//12
f 289//9 290//9 291//9
f 292//9 293//9 294//9
f 295//10 296//10 297//10
f 298//10 299//10 300//10
f 301//7 302//7 303//7
f 304//7 305//7 306//7
f 307//10 308//10 309//10
f 310//10 311//10 312//10
f 313//9 314//9 315//9
f 316//9 317//9 318//9
f 319//10 320//10 321//10
f 322//10 323//10 324//10
f 325//7 326//7 327//7
f 328//7 329//7 330//7
f 331//8 332//8 333//8
f 334//8 335//8 336//8
f 337//12 338//12 339//12
f 340//12 341//12 342//12
f 343//12 344//12 345//12
f 346//12 347//12 348//12
f 349//12 350//12 351//12
f 352//12 353//12 354//12
f 355//11 356//11 357//11
f 358//11 359//11 360//11
f 361//11 362//11 363//11
f 364//11 365//11 366//11
f 367//11 368//11 369//11
f 370//11 371//11 372//11
f 373//12 374//12 375//12
f 376//12 377//12 378//12
f 379//9 380//9 381//9
f 382//9 383//9 384//9
f 385//8 386//8 387//8
f 388//8 389//8 390//8
f 391//11 392//11 393//11
f 394//11 395//11 396//11
f 397//9 398//9 399//9
f 400//9 401//9 402//9
f 403//10 404//10 405//10
f 406//10 407//10 408//10
f 409//11 410//11 411//11
f 412//11 413//11 414//11
f 415//9 416//9 417//9
f 418//9 419//9 420//9
f 421//10 422//10 423//10
f 424//10 425//10 426//10
f 427//12 428//12 429//12
f 430//12 431//12 432//12
f 433//9 434//9 435//9
f 436//9 437//9 438//9
f 439//8 440//8 441//8
f 442//8 443//8 444//8
