# Blender 4.2.0
# www.blender.org
mtllib roup-804-prom.mtl
o CORPO_H_mesh_
v 14.000000 724.500000 13.000000
v 14.000000 710.500000 13.000000
v 789.000000 724.500000 13.000000
v 789.000000 724.500000 13.000000
v 14.000000 710.500000 13.000000
v 789.000000 710.500000 13.000000
v 789.000000 724.500000 479.999115
v 14.000000 724.500000 13.000000
v 14.000000 724.500000 479.999115
v 789.000000 724.500000 13.000000
v 14.000000 724.500000 13.000000
v 789.000000 724.500000 479.999115
v 789.000000 710.500000 479.999115
v 14.000000 724.500000 479.999115
v 14.000000 710.500000 479.999115
v 789.000000 724.500000 479.999115
v 14.000000 724.500000 479.999115
v 789.000000 710.500000 479.999115
v 789.000000 710.500000 13.000000
v 14.000000 710.500000 479.999115
v 14.000000 710.500000 13.000000
v 789.000000 710.500000 479.999115
v 14.000000 710.500000 479.999115
v 789.000000 710.500000 13.000000
v 14.000000 710.500000 13.000000
v 14.000000 724.500000 13.000000
v 14.000000 710.500000 479.999115
v 14.000000 710.500000 479.999115
v 14.000000 724.500000 13.000000
v 14.000000 724.500000 479.999115
v 789.000000 710.500000 479.999115
v 789.000000 724.500000 479.999115
v 789.000000 710.500000 13.000000
v 789.000000 710.500000 13.000000
v 789.000000 724.500000 479.999115
v 789.000000 724.500000 13.000000
v 14.000000 79.500000 10.000000
v 14.000000 84.500000 10.000000
v 789.000000 79.500000 10.000000
v 789.000000 79.500000 10.000000
v 14.000000 84.500000 10.000000
v 789.000000 84.500000 10.000000
v 14.000000 79.500000 13.000000
v 14.000000 79.500000 10.000000
v 789.000000 79.500000 13.000000
v 789.000000 79.500000 13.000000
v 14.000000 79.500000 10.000000
v 789.000000 79.500000 10.000000
v 14.000000 84.500000 13.000000
v 14.000000 79.500000 13.000000
v 789.000000 84.500000 13.000000
v 789.000000 84.500000 13.000000
v 14.000000 79.500000 13.000000
v 789.000000 79.500000 13.000000
v 789.000000 84.500000 545.000000
v 14.000000 84.500000 13.000000
v 14.000000 84.500000 545.000000
v 789.000000 84.500000 13.000000
v 14.000000 84.500000 13.000000
v 789.000000 84.500000 545.000000
v 789.000000 70.500000 545.000000
v 14.000000 84.500000 545.000000
v 14.000000 70.500000 545.000000
v 789.000000 84.500000 545.000000
v 14.000000 84.500000 545.000000
v 789.000000 70.500000 545.000000
v 789.000000 70.500000 0.000000
v 14.000000 70.500000 545.000000
v 14.000000 70.500000 0.000000
v 789.000000 70.500000 545.000000
v 14.000000 70.500000 545.000000
v 789.000000 70.500000 0.000000
v 789.000000 84.500000 0.000000
v 14.000000 70.500000 0.000000
v 14.000000 84.500000 0.000000
v 789.000000 70.500000 0.000000
v 14.000000 70.500000 0.000000
v 789.000000 84.500000 0.000000
v 789.000000 84.500000 10.000000
v 14.000000 84.500000 0.000000
v 14.000000 84.500000 10.000000
v 789.000000 84.500000 0.000000
v 14.000000 84.500000 0.000000
v 789.000000 84.500000 10.000000
v 789.000000 84.500000 10.000000
v 789.000000 84.500000 0.000000
v 789.000000 79.500000 10.000000
v 789.000000 84.500000 0.000000
v 789.000000 70.500000 0.000000
v 789.000000 79.500000 10.000000
v 789.000000 84.500000 13.000000
v 789.000000 79.500000 13.000000
v 789.000000 84.500000 545.000000
v 789.000000 84.500000 545.000000
v 789.000000 79.500000 13.000000
v 789.000000 70.500000 545.000000
v 789.000000 70.500000 545.000000
v 789.000000 79.500000 13.000000
v 789.000000 70.500000 0.000000
v 789.000000 79.500000 13.000000
v 789.000000 79.500000 10.000000
v 789.000000 70.500000 0.000000
v 14.000000 84.500000 10.000000
v 14.000000 79.500000 10.000000
v 14.000000 84.500000 0.000000
v 14.000000 84.500000 0.000000
v 14.000000 79.500000 10.000000
v 14.000000 70.500000 0.000000
v 14.000000 79.500000 10.000000
v 14.000000 79.500000 13.000000
v 14.000000 70.500000 0.000000
v 14.000000 70.500000 0.000000
v 14.000000 79.500000 13.000000
v 14.000000 70.500000 545.000000
v 14.000000 84.500000 13.000000
v 14.000000 84.500000 545.000000
v 14.000000 79.500000 13.000000
v 14.000000 79.500000 13.000000
v 14.000000 84.500000 545.000000
v 14.000000 70.500000 545.000000
v 14.000000 1972.500000 13.000000
v 14.000000 1958.500000 13.000000
v 789.000000 1972.500000 13.000000
v 789.000000 1972.500000 13.000000
v 14.000000 1958.500000 13.000000
v 789.000000 1958.500000 13.000000
v 789.000000 1972.500000 544.000000
v 14.000000 1972.500000 13.000000
v 14.000000 1972.500000 544.000000
v 789.000000 1972.500000 13.000000
v 14.000000 1972.500000 13.000000
v 789.000000 1972.500000 544.000000
v 789.000000 1958.500000 544.000000
v 14.000000 1972.500000 544.000000
v 14.000000 1958.500000 544.000000
v 789.000000 1972.500000 544.000000
v 14.000000 1972.500000 544.000000
v 789.000000 1958.500000 544.000000
v 789.000000 1958.500000 13.000000
v 14.000000 1958.500000 544.000000
v 14.000000 1958.500000 13.000000
v 789.000000 1958.500000 544.000000
v 14.000000 1958.500000 544.000000
v 789.000000 1958.500000 13.000000
v 14.000000 1958.500000 13.000000
v 14.000000 1972.500000 13.000000
v 14.000000 1958.500000 544.000000
v 14.000000 1958.500000 544.000000
v 14.000000 1972.500000 13.000000
v 14.000000 1972.500000 544.000000
v 789.000000 1958.500000 544.000000
v 789.000000 1972.500000 544.000000
v 789.000000 1958.500000 13.000000
v 789.000000 1958.500000 13.000000
v 789.000000 1972.500000 544.000000
v 789.000000 1972.500000 13.000000
v 789.000000 2360.000000 0.000000
v 14.000000 2346.000000 0.000000
v 14.000000 2360.000000 0.000000
v 789.000000 2346.000000 0.000000
v 14.000000 2346.000000 0.000000
v 789.000000 2360.000000 0.000000
v 789.000000 2360.000000 545.000000
v 14.000000 2360.000000 0.000000
v 14.000000 2360.000000 545.000000
v 789.000000 2360.000000 0.000000
v 14.000000 2360.000000 0.000000
v 789.000000 2360.000000 545.000000
v 789.000000 2346.000000 545.000000
v 14.000000 2360.000000 545.000000
v 14.000000 2346.000000 545.000000
v 789.000000 2360.000000 545.000000
v 14.000000 2360.000000 545.000000
v 789.000000 2346.000000 545.000000
v 789.000000 2346.000000 13.000000
v 14.000000 2346.000000 545.000000
v 14.000000 2346.000000 13.000000
v 789.000000 2346.000000 545.000000
v 14.000000 2346.000000 545.000000
v 789.000000 2346.000000 13.000000
v 14.000000 2351.000000 13.000000
v 14.000000 2346.000000 13.000000
v 789.000000 2351.000000 13.000000
v 789.000000 2351.000000 13.000000
v 14.000000 2346.000000 13.000000
v 789.000000 2346.000000 13.000000
v 14.000000 2351.000000 10.000000
v 14.000000 2351.000000 13.000000
v 789.000000 2351.000000 10.000000
v 789.000000 2351.000000 10.000000
v 14.000000 2351.000000 13.000000
v 789.000000 2351.000000 13.000000
v 14.000000 2346.000000 10.000000
v 14.000000 2351.000000 10.000000
v 789.000000 2346.000000 10.000000
v 789.000000 2346.000000 10.000000
v 14.000000 2351.000000 10.000000
v 789.000000 2351.000000 10.000000
v 789.000000 2346.000000 0.000000
v 14.000000 2346.000000 10.000000
v 14.000000 2346.000000 0.000000
v 789.000000 2346.000000 10.000000
v 14.000000 2346.000000 10.000000
v 789.000000 2346.000000 0.000000
v 14.000000 2346.000000 0.000000
v 14.000000 2360.000000 0.000000
v 14.000000 2351.000000 10.000000
v 14.000000 2346.000000 0.000000
v 14.000000 2351.000000 10.000000
v 14.000000 2346.000000 10.000000
v 14.000000 2351.000000 13.000000
v 14.000000 2360.000000 0.000000
v 14.000000 2351.000000 10.000000
v 14.000000 2346.000000 13.000000
v 14.000000 2351.000000 13.000000
v 14.000000 2346.000000 545.000000
v 14.000000 2346.000000 545.000000
v 14.000000 2351.000000 13.000000
v 14.000000 2360.000000 545.000000
v 14.000000 2360.000000 0.000000
v 14.000000 2351.000000 13.000000
v 14.000000 2360.000000 545.000000
v 789.000000 2346.000000 10.000000
v 789.000000 2351.000000 10.000000
v 789.000000 2346.000000 0.000000
v 789.000000 2346.000000 0.000000
v 789.000000 2351.000000 10.000000
v 789.000000 2360.000000 0.000000
v 789.000000 2360.000000 0.000000
v 789.000000 2351.000000 13.000000
v 789.000000 2351.000000 10.000000
v 789.000000 2360.000000 0.000000
v 789.000000 2351.000000 13.000000
v 789.000000 2360.000000 545.000000
v 789.000000 2346.000000 13.000000
v 789.000000 2346.000000 545.000000
v 789.000000 2351.000000 13.000000
v 789.000000 2346.000000 545.000000
v 789.000000 2360.000000 545.000000
v 789.000000 2351.000000 13.000000
v 789.000000 70.000000 22.500000
v 14.000000 0.000000 22.500000
v 14.000000 70.000000 22.500000
v 789.000000 0.000000 22.500000
v 14.000000 0.000000 22.500000
v 789.000000 70.000000 22.500000
v 14.000000 70.000000 37.500000
v 14.000000 70.000000 22.500000
v 789.000000 70.000000 37.500000
v 789.000000 70.000000 37.500000
v 14.000000 70.000000 22.500000
v 789.000000 70.000000 22.500000
v 789.000000 0.000000 37.500000
v 14.000000 70.000000 37.500000
v 14.000000 0.000000 37.500000
v 789.000000 70.000000 37.500000
v 14.000000 70.000000 37.500000
v 789.000000 0.000000 37.500000
v 789.000000 0.000000 22.500000
v 14.000000 0.000000 37.500000
v 14.000000 0.000000 22.500000
v 789.000000 0.000000 37.500000
v 14.000000 0.000000 37.500000
v 789.000000 0.000000 22.500000
v 789.000000 0.000000 37.500000
v 789.000000 70.000000 37.500000
v 789.000000 0.000000 22.500000
v 789.000000 0.000000 22.500000
v 789.000000 70.000000 37.500000
v 789.000000 70.000000 22.500000
v 14.000000 0.000000 22.500000
v 14.000000 70.000000 22.500000
v 14.000000 0.000000 37.500000
v 14.000000 0.000000 37.500000
v 14.000000 70.000000 22.500000
v 14.000000 70.000000 37.500000
v 789.000000 70.500000 528.500000
v 14.000000 0.500000 528.500000
v 14.000000 70.500000 528.500000
v 789.000000 0.500000 528.500000
v 14.000000 0.500000 528.500000
v 789.000000 70.500000 528.500000
v 14.000000 70.500000 543.500000
v 14.000000 70.500000 528.500000
v 789.000000 70.500000 543.500000
v 789.000000 70.500000 543.500000
v 14.000000 70.500000 528.500000
v 789.000000 70.500000 528.500000
v 789.000000 0.500000 543.500000
v 14.000000 70.500000 543.500000
v 14.000000 0.500000 543.500000
v 789.000000 70.500000 543.500000
v 14.000000 70.500000 543.500000
v 789.000000 0.500000 543.500000
v 789.000000 0.500000 528.500000
v 14.000000 0.500000 543.500000
v 14.000000 0.500000 528.500000
v 789.000000 0.500000 543.500000
v 14.000000 0.500000 543.500000
v 789.000000 0.500000 528.500000
v 14.000000 0.500000 528.500000
v 14.000000 70.500000 528.500000
v 14.000000 0.500000 543.500000
v 14.000000 0.500000 543.500000
v 14.000000 70.500000 528.500000
v 14.000000 70.500000 543.500000
v 789.000000 0.500000 543.500000
v 789.000000 70.500000 543.500000
v 789.000000 0.500000 528.500000
v 789.000000 0.500000 528.500000
v 789.000000 70.500000 543.500000
v 789.000000 70.500000 528.500000
vn -0.0000 -0.0000 1.0000
vn -0.0000 1.0000 -0.0000
vn -0.0000 -1.0000 -0.0000
vn 1.0000 -0.0000 -0.0000
vn -1.0000 -0.0000 -0.0000
vn -0.0000 -0.0000 -1.0000
s 0
f 1//1 2//1 3//1
f 4//1 5//1 6//1
f 7//2 8//2 9//2
f 10//2 11//2 12//2
f 13//1 14//1 15//1
f 16//1 17//1 18//1
f 19//3 20//3 21//3
f 22//3 23//3 24//3
f 25//4 26//4 27//4
f 28//4 29//4 30//4
f 31//5 32//5 33//5
f 34//5 35//5 36//5
f 37//6 38//6 39//6
f 40//6 41//6 42//6
f 43//3 44//3 45//3
f 46//3 47//3 48//3
f 49//1 50//1 51//1
f 52//1 53//1 54//1
f 55//2 56//2 57//2
f 58//2 59//2 60//2
f 61//1 62//1 63//1
f 64//1 65//1 66//1
f 67//3 68//3 69//3
f 70//3 71//3 72//3
f 73//6 74//6 75//6
f 76//6 77//6 78//6
f 79//2 80//2 81//2
f 82//2 83//2 84//2
f 85//5 86//5 87//5
f 88//5 89//5 90//5
f 91//5 92//5 93//5
f 94//5 95//5 96//5
f 97//5 98//5 99//5
f 100//5 101//5 102//5
f 103//4 104//4 105//4
f 106//4 107//4 108//4
f 109//4 110//4 111//4
f 112//4 113//4 114//4
f 115//4 116//4 117//4
f 118//4 119//4 120//4
f 121//1 122//1 123//1
f 124//1 125//1 126//1
f 127//2 128//2 129//2
f 130//2 131//2 132//2
f 133//1 134//1 135//1
f 136//1 137//1 138//1
f 139//3 140//3 141//3
f 142//3 143//3 144//3
f 145//4 146//4 147//4
f 148//4 149//4 150//4
f 151//5 152//5 153//5
f 154//5 155//5 156//5
f 157//6 158//6 159//6
f 160//6 161//6 162//6
f 163//2 164//2 165//2
f 166//2 167//2 168//2
f 169//1 170//1 171//1
f 172//1 173//1 174//1
f 175//3 176//3 177//3
f 178//3 179//3 180//3
f 181//1 182//1 183//1
f 184//1 185//1 186//1
f 187//2 188//2 189//2
f 190//2 191//2 192//2
f 193//6 194//6 195//6
f 196//6 197//6 198//6
f 199//3 200//3 201//3
f 202//3 203//3 204//3
f 205//4 206//4 207//4
f 208//4 209//4 210//4
f 211//5 212//5 213//5
f 214//4 215//4 216//4
f 217//4 218//4 219//4
f 220//5 221//5 222//5
f 223//5 224//5 225//5
f 226//5 227//5 228//5
f 229//4 230//4 231//4
f 232//5 233//5 234//5
f 235//5 236//5 237//5
f 238//5 239//5 240//5
f 241//6 242//6 243//6
f 244//6 245//6 246//6
f 247//3 248//3 249//3
f 250//3 251//3 252//3
f 253//1 254//1 255//1
f 256//1 257//1 258//1
f 259//3 260//3 261//3
f 262//3 263//3 264//3
f 265//5 266//5 267//5
f 268//5 269//5 270//5
f 271//4 272//4 273//4
f 274//4 275//4 276//4
f 277//6 278//6 279//6
f 280//6 281//6 282//6
f 283//3 284//3 285//3
f 286//3 287//3 288//3
f 289//1 290//1 291//1
f 292//1 293//1 294//1
f 295//3 296//3 297//3
f 298//3 299//3 300//3
f 301//4 302//4 303//4
f 304//4 305//4 306//4
f 307//5 308//5 309//5
f 310//5 311//5 312//5
o CORPO_V_mesh_
v 9.000000 2349.500000 13.000000
v 9.000000 2349.500000 10.500000
v 794.000000 2349.500000 13.000000
v 794.000000 2349.500000 13.000000
v 9.000000 2349.500000 10.500000
v 794.000000 2349.500000 10.500000
v 9.000000 80.500000 10.500000
v 794.000000 2349.500000 10.500000
v 794.000000 80.500000 10.500000
v 9.000000 2349.500000 10.500000
v 794.000000 2349.500000 10.500000
v 9.000000 80.500000 10.500000
v 794.000000 80.500000 13.000000
v 794.000000 2349.500000 13.000000
v 794.000000 80.500000 10.500000
v 794.000000 80.500000 10.500000
v 794.000000 2349.500000 13.000000
v 794.000000 2349.500000 10.500000
v 9.000000 80.500000 10.500000
v 9.000000 2349.500000 10.500000
v 9.000000 80.500000 13.000000
v 9.000000 80.500000 13.000000
v 9.000000 2349.500000 10.500000
v 9.000000 2349.500000 13.000000
v 794.000000 80.500000 13.000000
v 9.000000 2349.500000 13.000000
v 9.000000 80.500000 13.000000
v 794.000000 2349.500000 13.000000
v 9.000000 2349.500000 13.000000
v 794.000000 80.500000 13.000000
v 9.000000 80.500000 10.500000
v 9.000000 80.500000 13.000000
v 794.000000 80.500000 10.500000
v 794.000000 80.500000 10.500000
v 9.000000 80.500000 13.000000
v 794.000000 80.500000 13.000000
v 14.000000 0.000000 10.000000
v 14.000000 2360.000000 0.000000
v 14.000000 2360.000000 10.000000
v 14.000000 0.000000 0.000000
v 14.000000 2360.000000 0.000000
v 14.000000 0.000000 10.000000
v 9.000000 2360.000000 10.000000
v 14.000000 2360.000000 10.000000
v 9.000000 0.000000 10.000000
v 9.000000 0.000000 10.000000
v 14.000000 2360.000000 10.000000
v 14.000000 0.000000 10.000000
v 9.000000 2360.000000 14.000000
v 9.000000 2360.000000 10.000000
v 9.000000 0.000000 14.000000
v 9.000000 0.000000 10.000000
v 9.000000 2360.000000 10.000000
v 9.000000 0.000000 14.000000
v 14.000000 2360.000000 14.000000
v 9.000000 2360.000000 14.000000
v 14.000000 0.000000 14.000000
v 9.000000 0.000000 14.000000
v 9.000000 2360.000000 14.000000
v 14.000000 0.000000 14.000000
v 14.000000 0.000000 545.000000
v 14.000000 2360.000000 14.000000
v 14.000000 2360.000000 545.000000
v 14.000000 0.000000 14.000000
v 14.000000 2360.000000 14.000000
v 14.000000 0.000000 545.000000
v 0.000000 0.000000 545.000000
v 14.000000 2360.000000 545.000000
v 0.000000 2360.000000 545.000000
v 14.000000 0.000000 545.000000
v 14.000000 2360.000000 545.000000
v 0.000000 0.000000 545.000000
v 0.000000 0.000000 0.000000
v 0.000000 2360.000000 545.000000
v 0.000000 2360.000000 0.000000
v 0.000000 0.000000 545.000000
v 0.000000 2360.000000 545.000000
v 0.000000 0.000000 0.000000
v 14.000000 0.000000 0.000000
v 0.000000 2360.000000 0.000000
v 14.000000 2360.000000 0.000000
v 0.000000 0.000000 0.000000
v 0.000000 2360.000000 0.000000
v 14.000000 0.000000 0.000000
v 14.000000 2360.000000 0.000000
v 9.000000 2360.000000 10.000000
v 14.000000 2360.000000 10.000000
v 0.000000 2360.000000 0.000000
v 9.000000 2360.000000 10.000000
v 14.000000 2360.000000 0.000000
v 0.000000 2360.000000 0.000000
v 9.000000 2360.000000 14.000000
v 9.000000 2360.000000 10.000000
v 0.000000 2360.000000 545.000000
v 9.000000 2360.000000 14.000000
v 0.000000 2360.000000 0.000000
v 9.000000 2360.000000 14.000000
v 14.000000 2360.000000 545.000000
v 14.000000 2360.000000 14.000000
v 9.000000 2360.000000 14.000000
v 0.000000 2360.000000 545.000000
v 14.000000 2360.000000 545.000000
v 9.000000 0.000000 10.000000
v 0.000000 0.000000 0.000000
v 14.000000 0.000000 0.000000
v 14.000000 0.000000 10.000000
v 9.000000 0.000000 10.000000
v 14.000000 0.000000 0.000000
v 9.000000 0.000000 14.000000
v 0.000000 0.000000 0.000000
v 9.000000 0.000000 10.000000
v 14.000000 0.000000 545.000000
v 9.000000 0.000000 14.000000
v 14.000000 0.000000 14.000000
v 0.000000 0.000000 545.000000
v 9.000000 0.000000 14.000000
v 14.000000 0.000000 545.000000
v 0.000000 0.000000 0.000000
v 9.000000 0.000000 14.000000
v 0.000000 0.000000 545.000000
v 789.000000 0.000000 545.000000
v 803.000000 2360.000000 545.000000
v 789.000000 2360.000000 545.000000
v 803.000000 0.000000 545.000000
v 803.000000 2360.000000 545.000000
v 789.000000 0.000000 545.000000
v 789.000000 0.000000 14.000000
v 789.000000 2360.000000 545.000000
v 789.000000 2360.000000 14.000000
v 789.000000 0.000000 545.000000
v 789.000000 2360.000000 545.000000
v 789.000000 0.000000 14.000000
v 794.000000 2360.000000 14.000000
v 789.000000 2360.000000 14.000000
v 794.000000 0.000000 14.000000
v 789.000000 0.000000 14.000000
v 789.000000 2360.000000 14.000000
v 794.000000 0.000000 14.000000
v 794.000000 2360.000000 10.000000
v 794.000000 2360.000000 14.000000
v 794.000000 0.000000 10.000000
v 794.000000 0.000000 14.000000
v 794.000000 2360.000000 14.000000
v 794.000000 0.000000 10.000000
v 789.000000 2360.000000 10.000000
v 794.000000 2360.000000 10.000000
v 789.000000 0.000000 10.000000
v 789.000000 0.000000 10.000000
v 794.000000 2360.000000 10.000000
v 794.000000 0.000000 10.000000
v 789.000000 0.000000 0.000000
v 789.000000 2360.000000 10.000000
v 789.000000 2360.000000 0.000000
v 789.000000 0.000000 10.000000
v 789.000000 2360.000000 10.000000
v 789.000000 0.000000 0.000000
v 803.000000 0.000000 0.000000
v 789.000000 2360.000000 0.000000
v 803.000000 2360.000000 0.000000
v 789.000000 0.000000 0.000000
v 789.000000 2360.000000 0.000000
v 803.000000 0.000000 0.000000
v 803.000000 0.000000 545.000000
v 803.000000 2360.000000 0.000000
v 803.000000 2360.000000 545.000000
v 803.000000 0.000000 0.000000
v 803.000000 2360.000000 0.000000
v 803.000000 0.000000 545.000000
v 789.000000 2360.000000 545.000000
v 794.000000 2360.000000 14.000000
v 789.000000 2360.000000 14.000000
v 803.000000 2360.000000 545.000000
v 794.000000 2360.000000 14.000000
v 789.000000 2360.000000 545.000000
v 794.000000 2360.000000 10.000000
v 803.000000 2360.000000 0.000000
v 789.000000 2360.000000 0.000000
v 789.000000 2360.000000 10.000000
v 794.000000 2360.000000 10.000000
v 789.000000 2360.000000 0.000000
v 794.000000 2360.000000 14.000000
v 803.000000 2360.000000 0.000000
v 794.000000 2360.000000 10.000000
v 803.000000 2360.000000 545.000000
v 803.000000 2360.000000 0.000000
v 794.000000 2360.000000 14.000000
v 794.000000 0.000000 14.000000
v 803.000000 0.000000 0.000000
v 803.000000 0.000000 545.000000
v 789.000000 0.000000 545.000000
v 794.000000 0.000000 14.000000
v 803.000000 0.000000 545.000000
v 789.000000 0.000000 14.000000
v 794.000000 0.000000 14.000000
v 789.000000 0.000000 545.000000
v 794.000000 0.000000 10.000000
v 803.000000 0.000000 0.000000
v 794.000000 0.000000 14.000000
v 789.000000 0.000000 0.000000
v 794.000000 0.000000 10.000000
v 789.000000 0.000000 10.000000
v 803.000000 0.000000 0.000000
v 794.000000 0.000000 10.000000
v 789.000000 0.000000 0.000000
vn -0.0000 -1.0000 -0.0000
vn -0.0000 -0.0000 -1.0000
vn -1.0000 -0.0000 -0.0000
vn 1.0000 -0.0000 -0.0000
vn -0.0000 -0.0000 1.0000
vn -0.0000 1.0000 -0.0000
s 0
f 313//7 314//7 315//7
f 316//7 317//7 318//7
f 319//8 320//8 321//8
f 322//8 323//8 324//8
f 325//9 326//9 327//9
f 328//9 329//9 330//9
f 331//10 332//10 333//10
f 334//10 335//10 336//10
f 337//11 338//11 339//11
f 340//11 341//11 342//11
f 343//12 344//12 345//12
f 346//12 347//12 348//12
f 349//10 350//10 351//10
f 352//10 353//10 354//10
f 355//8 356//8 357//8
f 358//8 359//8 360//8
f 361//9 362//9 363//9
f 364//10 365//10 366//10
f 367//11 368//11 369//11
f 370//8 371//8 372//8
f 373//10 374//10 375//10
f 376//10 377//10 378//10
f 379//11 380//11 381//11
f 382//11 383//11 384//11
f 385//9 386//9 387//9
f 388//9 389//9 390//9
f 391//8 392//8 393//8
f 394//8 395//8 396//8
f 397//12 398//12 399//12
f 400//12 401//12 402//12
f 403//12 404//12 405//12
f 406//12 407//12 408//12
f 409//12 410//12 411//12
f 412//12 413//12 414//12
f 415//7 416//7 417//7
f 418//7 419//7 420//7
f 421//7 422//7 423//7
f 424//7 425//7 426//7
f 427//7 428//7 429//7
f 430//7 431//7 432//7
f 433//11 434//11 435//11
f 436//11 437//11 438//11
f 439//9 440//9 441//9
f 442//9 443//9 444//9
f 445//11 446//11 447//11
f 448//8 449//8 450//8
f 451//10 452//10 453//10
f 454//9 455//9 456//9
f 457//8 458//8 459//8
f 460//8 461//8 462//8
f 463//9 464//9 465//9
f 466//9 467//9 468//9
f 469//8 470//8 471//8
f 472//8 473//8 474//8
f 475//10 476//10 477//10
f 478//10 479//10 480//10
f 481//12 482//12 483//12
f 484//12 485//12 486//12
f 487//12 488//12 489//12
f 490//12 491//12 492//12
f 493//12 494//12 495//12
f 496//12 497//12 498//12
f 499//7 500//7 501//7
f 502//7 503//7 504//7
f 505//7 506//7 507//7
f 508//7 509//7 510//7
f 511//7 512//7 513//7
f 514//7 515//7 516//7
